<svg width="110" height="111" viewBox="0 0 110 111" fill="none" xmlns="http://www.w3.org/2000/svg">
<rect width="110" height="110.236" rx="55" fill="#F4B44E"/>
<g clip-path="url(#clip0_986_803)">
<path d="M79.376 85.2398H30.628C27.5261 85.2398 25.002 82.7062 25.002 79.5892V51.3384C25.002 51.3138 25.0152 51.295 25.0152 51.2723C25.0171 51.2043 25.0397 51.1401 25.0548 51.0741C25.0756 50.923 25.102 50.7796 25.1587 50.638C25.1662 50.6115 25.1681 50.5832 25.1794 50.5587C25.2172 50.4775 25.2757 50.4095 25.3286 50.3359C25.3795 50.2585 25.4022 50.1716 25.4626 50.0999C25.4947 50.064 25.5362 50.0508 25.5683 50.0187C25.5834 50.0036 25.5929 49.9829 25.608 49.9677C25.625 49.9508 25.6325 49.93 25.6495 49.9149L34.3774 42.316V34.3886C34.3774 33.3484 35.2175 32.5045 36.2521 32.5045H45.6483L53.7739 25.4304C54.4799 24.8188 55.524 24.8188 56.23 25.4304L64.3575 32.5045H73.7518C74.7883 32.5045 75.6265 33.3484 75.6265 34.3886V42.316L84.3563 49.9149C84.3733 49.93 84.3789 49.9526 84.3978 49.9677C84.4129 49.9829 84.4224 50.0036 84.4375 50.0206C84.4696 50.0508 84.5111 50.0659 84.5413 50.0999C84.6017 50.1698 84.6244 50.2566 84.6716 50.3321C84.7263 50.4076 84.7867 50.4775 84.8245 50.5587C84.8358 50.5851 84.8377 50.6134 84.8453 50.6398C84.9019 50.7796 84.9264 50.9211 84.9472 51.0684C84.9642 51.1364 84.9869 51.2024 84.9887 51.2723C84.9887 51.295 85.002 51.3138 85.002 51.3384V79.5892C85.002 82.7062 82.4778 85.2398 79.376 85.2398ZM78.4244 81.4734L55.1841 60.7893C55.1218 60.7364 54.8802 60.7364 54.7971 60.8082L31.5795 81.4734H78.4244ZM28.5984 79.0927L42.048 67.1233L28.5984 55.3445V79.0927ZM29.735 51.3422L34.3774 55.4068V47.302L29.735 51.3422ZM55.0029 29.346L51.3743 32.5045H58.6296L55.0029 29.346ZM64.1914 36.1501C64.0139 36.2048 63.8346 36.2652 63.6496 36.2652C63.4306 36.2652 63.2116 36.2275 63.002 36.1501H38.038V58.6144L44.878 64.6048L52.3334 57.9688C53.8418 56.6718 56.1621 56.6717 57.6479 57.9499L65.124 64.6029L72.0206 58.5653V36.1501H64.1914ZM75.6265 47.302V55.4068L80.2671 51.3422L75.6265 47.302ZM81.4602 55.2955L67.9559 67.1233L81.4602 79.1418V55.2955Z" fill="#2A4E4A"/>
</g>
<defs>
<clipPath id="clip0_986_803">
<rect width="60" height="60.236" fill="white" transform="translate(25 25)"/>
</clipPath>
</defs>
</svg>
