<svg width="110" height="111" viewBox="0 0 110 111" fill="none" xmlns="http://www.w3.org/2000/svg">
<rect width="110" height="110.236" rx="55" fill="#F4B44E"/>
<g clip-path="url(#clip0_595_6403)">
<path d="M79.3758 85.2398H30.6278C27.526 85.2398 25.0018 82.7062 25.0018 79.5892V51.3384C25.0018 51.3138 25.015 51.295 25.015 51.2723C25.0169 51.2043 25.0396 51.1401 25.0547 51.0741C25.0755 50.923 25.1019 50.7796 25.1585 50.638C25.1661 50.6115 25.168 50.5832 25.1793 50.5587C25.2171 50.4775 25.2756 50.4095 25.3284 50.3359C25.3794 50.2585 25.4021 50.1716 25.4625 50.0999C25.4946 50.064 25.5361 50.0508 25.5682 50.0187C25.5833 50.0036 25.5928 49.9829 25.6079 49.9677C25.6248 49.9508 25.6324 49.93 25.6494 49.9149L34.3772 42.316V34.3886C34.3772 33.3484 35.2174 32.5045 36.2519 32.5045H45.6481L53.7737 25.4304C54.4798 24.8188 55.5238 24.8188 56.2299 25.4304L64.3574 32.5045H73.7517C74.7882 32.5045 75.6264 33.3484 75.6264 34.3886V42.316L84.3562 49.9149C84.3732 49.93 84.3788 49.9526 84.3977 49.9677C84.4128 49.9829 84.4222 50.0036 84.4373 50.0206C84.4694 50.0508 84.511 50.0659 84.5412 50.0999C84.6016 50.1698 84.6242 50.2566 84.6714 50.3321C84.7262 50.4076 84.7866 50.4775 84.8244 50.5587C84.8357 50.5851 84.8376 50.6134 84.8451 50.6398C84.9018 50.7796 84.9263 50.9211 84.9471 51.0684C84.9641 51.1364 84.9867 51.2024 84.9886 51.2723C84.9886 51.295 85.0018 51.3138 85.0018 51.3384V79.5892C85.0018 82.7062 82.4777 85.2398 79.3758 85.2398ZM78.4243 81.4734L55.184 60.7893C55.1217 60.7364 54.8801 60.7364 54.797 60.8082L31.5793 81.4734H78.4243ZM28.5983 79.0927L42.0479 67.1233L28.5983 55.3445V79.0927ZM29.7348 51.3422L34.3772 55.4068V47.302L29.7348 51.3422ZM55.0028 29.346L51.3742 32.5045H58.6295L55.0028 29.346ZM64.1913 36.1501C64.0138 36.2048 63.8345 36.2652 63.6495 36.2652C63.4305 36.2652 63.2115 36.2275 63.0019 36.1501H38.0379V58.6144L44.8779 64.6048L52.3333 57.9688C53.8417 56.6718 56.162 56.6717 57.6478 57.9499L65.1239 64.6029L72.0205 58.5653V36.1501H64.1913ZM75.6264 47.302V55.4068L80.2669 51.3422L75.6264 47.302ZM81.4601 55.2955L67.9558 67.1233L81.4601 79.1418V55.2955Z" fill="#2A4E4A"/>
</g>
<defs>
<clipPath id="clip0_595_6403">
<rect width="60" height="60.236" fill="white" transform="translate(25 25)"/>
</clipPath>
</defs>
</svg>
