<svg width="111" height="111" viewBox="0 0 111 111" fill="none" xmlns="http://www.w3.org/2000/svg">
<rect width="110.244" height="110.244" rx="55.1219" fill="#FBEBD6"/>
<path fill-rule="evenodd" clip-rule="evenodd" d="M59.997 20.4427C59.9983 19.625 60.5541 18.9294 61.3704 18.735C62.1708 18.5562 62.9864 18.9474 63.3457 19.6831L70.3943 34.1163C74.3691 33.0865 78.6608 34.9576 80.5302 38.7855C82.3996 42.6134 81.238 47.1517 77.982 49.6531L85.029 64.0831C85.3884 64.8189 85.197 65.7058 84.5623 66.2239C84.4562 66.3099 84.3406 66.3835 84.2177 66.4432C83.6247 66.7328 82.9118 66.6725 82.3726 66.2602C70.8329 57.4376 59.1113 62.9931 58.9939 63.0504L47.894 68.4712L55.638 84.3284L58.1022 83.1249C56.5332 80.7568 54.2234 76.4291 55.0755 72.4072C55.627 69.8047 57.3301 67.7908 60.1463 66.4154L61.6951 69.5868C59.8842 70.4712 58.8489 71.6328 58.5287 73.1325C57.8023 76.543 60.8813 81.1589 62.1254 82.6527C62.4735 83.0679 62.6104 83.6217 62.4997 84.151C62.3858 84.6819 62.0327 85.1332 61.5475 85.3702L55.6011 88.2742C54.7258 88.7017 53.67 88.3414 53.241 87.4629L44.7225 70.02L43.1368 70.7944C38.7634 72.9303 33.472 71.1113 31.3362 66.7379L30.5618 65.1522L28.9761 65.9266C28.1008 66.3541 27.045 65.9937 26.616 65.1153C26.1885 64.2399 26.552 63.1826 27.4273 62.7551L29.013 61.9807L28.2386 60.395C26.1043 56.0248 27.9217 50.7302 32.2951 48.5944L48.1491 40.8519C48.6232 40.6165 59.8603 34.8891 59.997 20.4427ZM62.8243 26.6583C60.6805 36.1343 54.2147 41.2323 51.2326 43.1364L59.0866 59.2187C62.4219 58.0377 70.4163 56.0699 79.2091 60.2088L62.8243 26.6583ZM48.1154 44.7962L33.844 51.7659C31.2212 53.0468 30.1292 56.2235 31.41 58.8462L34.5076 65.1891C35.7885 67.8119 38.9652 68.9039 41.588 67.623L55.8594 60.6534L48.1154 44.7962ZM72.0082 37.4209L76.3681 46.3485C77.8901 44.7922 78.3671 42.3989 77.3588 40.3343C76.3505 38.2697 74.1714 37.1776 72.0082 37.4209Z" fill="#2A4E4A"/>
</svg>
