<svg width="111" height="111" viewBox="0 0 111 111" fill="none" xmlns="http://www.w3.org/2000/svg">
<rect width="110.244" height="110.244" rx="55.1219" fill="#FBEBD6"/>
<path fill-rule="evenodd" clip-rule="evenodd" d="M59.997 20.4427C59.9983 19.6251 60.5541 18.9295 61.3704 18.735C62.1708 18.5563 62.9864 18.9475 63.3457 19.6832L70.3943 34.1164C74.3691 33.0865 78.6608 34.9577 80.5302 38.7856C82.3996 42.6135 81.238 47.1518 77.982 49.6532L85.029 64.0832C85.3884 64.8189 85.197 65.7058 84.5623 66.2239C84.4562 66.31 84.3406 66.3836 84.2177 66.4433C83.6247 66.7329 82.9118 66.6726 82.3726 66.2603C70.8329 57.4376 59.1113 62.9931 58.9939 63.0505L47.894 68.4713L55.638 84.3284L58.1022 83.125C56.5332 80.7568 54.2234 76.4291 55.0755 72.4073C55.627 69.8048 57.3301 67.7908 60.1463 66.4155L61.6951 69.5869C59.8842 70.4713 58.8489 71.6328 58.5287 73.1325C57.8023 76.5431 60.8813 81.1589 62.1254 82.6528C62.4735 83.068 62.6104 83.6217 62.4997 84.1511C62.3858 84.682 62.0327 85.1333 61.5475 85.3702L55.6011 88.2743C54.7258 88.7017 53.67 88.3414 53.241 87.463L44.7225 70.0201L43.1368 70.7945C38.7634 72.9303 33.472 71.1114 31.3362 66.738L30.5618 65.1523L28.9761 65.9267C28.1008 66.3541 27.045 65.9938 26.616 65.1153C26.1885 64.24 26.552 63.1827 27.4273 62.7552L29.013 61.9808L28.2386 60.3951C26.1043 56.0249 27.9217 50.7303 32.2951 48.5945L48.1491 40.852C48.6232 40.6165 59.8603 34.8892 59.997 20.4427ZM62.8243 26.6584C60.6805 36.1344 54.2147 41.2323 51.2326 43.1365L59.0866 59.2188C62.4219 58.0377 70.4163 56.07 79.2091 60.2088L62.8243 26.6584ZM48.1154 44.7963L33.844 51.766C31.2212 53.0468 30.1292 56.2236 31.41 58.8463L34.5076 65.1892C35.7885 67.8119 38.9652 68.904 41.588 67.6231L55.8594 60.6534L48.1154 44.7963ZM72.0082 37.421L76.3681 46.3486C77.8901 44.7922 78.3671 42.399 77.3588 40.3344C76.3505 38.2698 74.1714 37.1776 72.0082 37.421Z" fill="#2A4E4A"/>
</svg>
