<svg width="110" height="110" viewBox="0 0 110 110" fill="none" xmlns="http://www.w3.org/2000/svg">
<rect width="110" height="110" rx="55" fill="#2A4E4A"/>
<path fill-rule="evenodd" clip-rule="evenodd" d="M72.7651 27.4339C71.1539 26.5318 69.4386 26.4409 67.6256 26.6675C65.9033 26.8828 63.8083 27.4273 61.2903 28.0818L55.4036 29.6116C52.8868 30.2656 50.7912 30.8102 49.1876 31.4593C47.5018 32.1419 46.0441 33.059 45.0986 34.6474C44.1471 36.2458 44.0526 37.9545 44.2898 39.7393C44.5133 41.4221 45.0776 43.4642 45.7498 45.8971L47.3322 51.6251C48.0046 54.0594 48.5686 56.101 49.2421 57.6655C49.957 59.3269 50.9122 60.7412 52.5327 61.6485C54.1436 62.5507 55.8589 62.6417 57.6722 62.415C59.3942 62.1998 61.4895 61.6553 64.0072 61.0008L69.8942 59.471C72.411 58.8167 74.5066 58.2722 76.1099 57.6233C77.7957 56.9405 79.2535 56.0235 80.1991 54.435C81.1505 52.8367 81.245 51.1278 81.0078 49.3431C80.7841 47.6604 80.2201 45.6183 79.5478 43.1853L77.9652 37.4573C77.2929 35.0232 76.7288 32.9814 76.0556 31.4168C75.3405 29.7556 74.3856 28.3413 72.7651 27.4339ZM62.2478 32.3533C64.9455 31.6522 66.7631 31.1843 68.1681 31.0087C69.5144 30.8405 70.159 30.9888 70.6274 31.2512C71.0865 31.5082 71.5246 31.9563 72.0371 33.1464C72.5772 34.4016 73.0649 36.1491 73.7891 38.7702L75.2894 44.2012C76.0139 46.8229 76.492 48.572 76.6711 49.9195C76.8408 51.199 76.6888 51.7788 76.4398 52.1974C76.1846 52.6258 75.722 53.0601 74.4681 53.5679C73.1623 54.0967 71.3478 54.5727 68.6493 55.2739L63.0499 56.7293C60.352 57.4305 58.5343 57.8983 57.1294 58.0739C55.7831 58.2422 55.1388 58.0937 54.6701 57.8312C54.2113 57.5743 53.7729 57.1263 53.2607 55.936C52.7206 54.6809 52.2326 52.9333 51.5084 50.3123L50.0081 44.8813C49.2838 42.2596 48.8057 40.5105 48.6266 39.1631C48.4566 37.8835 48.6088 37.3037 48.858 36.8852C49.113 36.4566 49.5755 36.0222 50.8294 35.5146C52.1355 34.9858 53.9499 34.5097 56.6481 33.8085L62.2478 32.3533Z" fill="white"/>
<path fill-rule="evenodd" clip-rule="evenodd" d="M29.3354 33.7804C28.1712 33.4574 26.9657 34.1393 26.6427 35.3034C26.3197 36.4676 27.0016 37.6732 28.1657 37.9961L33.1349 39.3748C34.3762 39.7192 35.3006 40.6569 35.6164 41.8L41.3077 62.4008C41.089 62.4436 40.8705 62.4935 40.6523 62.5504C34.8859 64.049 31.3623 69.8496 32.9452 75.5794C34.5206 81.2815 40.5104 84.5704 46.254 83.0776C51.2804 81.7715 54.6028 77.1964 54.3242 72.2489L78.884 65.8664C80.0533 65.5624 80.755 64.3681 80.4511 63.1988C80.1472 62.0295 78.9528 61.328 77.7835 61.6319L53.1724 68.0279C51.6899 65.1483 48.9668 63.1454 45.8617 62.4556L39.8334 40.6349C39.0951 37.9626 36.9788 35.901 34.3045 35.159L29.3354 33.7804ZM41.7528 66.7845C45.2869 65.8661 48.8334 67.9174 49.7442 71.2135C50.6472 74.4822 48.6649 77.9309 45.1536 78.8432C41.6194 79.7616 38.0729 77.7104 37.1623 74.4142C36.2593 71.1458 38.2414 67.6971 41.7528 66.7845Z" fill="white"/>
</svg>
