<svg width="10" height="10" viewBox="0 0 10 10" fill="none" xmlns="http://www.w3.org/2000/svg">
<path d="M8.46523 0.926902L8.46549 0.926647C8.63456 0.757784 8.90403 0.757784 9.0731 0.926647C9.24226 1.0956 9.2423 1.36507 9.07323 1.53407L9.07335 1.53395L8.93177 1.39271L9.0731 1.53421L8.46523 0.926902ZM8.46523 0.926902L5.00599 4.39441L8.46523 0.926902ZM9.0601 8.46904L5.61369 5.00188L8.60682 8.93509C8.64582 8.97404 8.7108 9 8.76279 9C8.81479 9 8.87977 8.97404 8.91877 8.93509C9.00975 8.84422 9.00975 8.70142 8.91877 8.61055L9.06061 8.46955L9.06044 8.46938C9.06033 8.46927 9.06021 8.46915 9.0601 8.46904ZM1.53451 9.0766L5.00624 5.60909L1.53451 0.939628L1.39318 1.08113L1.53426 0.939374L1.53436 0.939473C1.36528 0.770766 1.09592 0.770818 0.926902 0.939628C0.757699 1.10863 0.757699 1.37819 0.926902 1.54719L0.927157 1.54744L4.39855 5.00213L0.939899 8.46904C0.939824 8.46912 0.939749 8.46919 0.939674 8.46927C0.939664 8.46928 0.939655 8.46929 0.939645 8.4693C0.770697 8.63831 0.770782 8.90769 0.939899 9.0766C1.01684 9.15345 1.13285 9.2 1.23721 9.2C1.34156 9.2 1.45757 9.15345 1.53451 9.0766Z" fill="#1B4F4A" stroke="#1B4F4A" stroke-width="0.4"/>
</svg>
